<!DOCTYPE svg PUBLIC "-//W3C//DTD SVG 1.1//EN" "http://www.w3.org/Graphics/SVG/1.1/DTD/svg11.dtd">
<!-- Uploaded to: SVG Repo, www.svgrepo.com, Transformed by: SVG Repo Mixer Tools -->
<svg width="64px" height="64px" viewBox="-0.08 0 20.162 20.162" xmlns="http://www.w3.org/2000/svg" fill="#000000">
<g id="SVGRepo_bgCarrier" stroke-width="0"/>
<g id="SVGRepo_tracerCarrier" stroke-linecap="round" stroke-linejoin="round"/>
<g id="SVGRepo_iconCarrier"> <g id="user-circle" transform="translate(-2 -2)"> <path id="secondary" fill="#2ca9bc" d="M18.36,5.64A9,9,0,0,0,3,12c0,.11,0,.22,0,.32A9,9,0,0,0,7,19.5H7A5,5,0,0,1,12,15a4,4,0,1,1,4-4,4,4,0,0,1-4,4,5,5,0,0,1,5,4.48h0a9,9,0,0,0,4-7.18v-.32a9,9,0,0,0-2.64-6.34Z"/> <path id="primary" d="M12,15a5,5,0,0,0-5,4.5,9,9,0,0,0,9.94,0A5,5,0,0,0,12,15Zm0-8a4,4,0,1,0,4,4A4,4,0,0,0,12,7Zm0,14h0a9,9,0,0,1-9-9H3a9,9,0,0,1,9-9h0a9,9,0,0,1,9,9h0a9,9,0,0,1-9,9Z" fill="none" stroke="#000000" stroke-linecap="round" stroke-linejoin="round" stroke-width="2"/> </g> </g>
</svg>